<?xml version="1.0" standalone="no"?>
<!DOCTYPE svg PUBLIC "-//W3C//DTD SVG 20010904//EN"
 "http://www.w3.org/TR/2001/REC-SVG-20010904/DTD/svg10.dtd">
<svg version="1.0" xmlns="http://www.w3.org/2000/svg"
 width="360.000000pt" height="360.000000pt" viewBox="0 0 360.000000 360.000000"
 preserveAspectRatio="xMidYMid meet">
<metadata>
Created by potrace 1.16, written by Peter Selinger 2001-2019
</metadata>
<g transform="translate(0.000000,360.000000) scale(0.100000,-0.100000)"
fill="#000000" stroke="none">
<path d="M1752 2388 c-21 -29 -121 -177 -222 -328 -100 -151 -184 -277 -186
-278 -1 -2 -164 81 -361 186 -459 243 -479 253 -497 246 -9 -3 -16 -14 -16
-23 0 -32 422 -1095 444 -1120 11 -13 32 -28 46 -33 42 -16 279 -37 577 -50
302 -13 674 -3 975 27 153 15 194 27 221 68 8 13 110 266 225 562 213 546 222
575 177 575 -8 0 -198 -97 -422 -216 -225 -118 -412 -216 -417 -217 -4 -1
-107 144 -228 323 -254 377 -247 371 -316 278z"/>
</g>
</svg>
